# xmcd
#
# Track frame offsets:
#	150
#	14534
#	25893
#	43716
#	60199
#	78100
#	93869
#	110907
#	128067
#	149627
#	168689
#	183594
#
# Disc length: 2664 seconds
#
# Revision: 0
# Processed by: cddbd v1.5.2PL0 Copyright (c) Steve Scherf et al.
# Submitted via: EZCDAudioConverter 1.2.3.1
#
DISCID=a00a660c
DTITLE=Halfway To Hazard - Come On TIme
DYEAR=2010
DGENRE=Country
TTITLE0=The Likes Of Her
TTITLE1=Bar Flu
TTITLE2=Only Get So Much Time
TTITLE3=Slow It Down
TTITLE4=I Know Where Heaven Is
TTITLE5=Blind
TTITLE6=Gettin' Lucky
TTITLE7=That Guy
TTITLE8=If I Get Lonely Enough
TTITLE9=Just Like Me
TTITLE10=Come On Time
TTITLE11=Glad You're Gone
EXTD=
EXTT0=
EXTT1=
EXTT2=
EXTT3=
EXTT4=
EXTT5=
EXTT6=
EXTT7=
EXTT8=
EXTT9=
EXTT10=
EXTT11=
PLAYORDER=
